<svg width="40" height="39" viewBox="0 0 40 39" fill="none" xmlns="http://www.w3.org/2000/svg">
<path d="M20.3875 0.897827C17.8282 0.897827 15.2939 1.40193 12.9294 2.38134C10.5648 3.36076 8.41637 4.79631 6.60665 6.60604C2.95174 10.2609 0.898438 15.2181 0.898438 20.3869C0.898438 29.001 6.4918 36.3094 14.2289 38.9015C15.2034 39.0574 15.5152 38.4532 15.5152 37.927V34.6334C10.1168 35.8027 8.9669 32.0218 8.9669 32.0218C8.07041 29.7611 6.80362 29.157 6.80362 29.157C5.03012 27.9486 6.94004 27.9876 6.94004 27.9876C8.88895 28.124 9.92187 29.995 9.92187 29.995C11.6174 32.9573 14.4823 32.0803 15.5932 31.6126C15.7686 30.3458 16.2753 29.4883 16.821 29.001C12.4944 28.5138 7.95347 26.8378 7.95347 19.4124C7.95347 17.2491 8.69406 15.5146 9.96085 14.1309C9.76596 13.6437 9.08384 11.6168 10.1557 8.98578C10.1557 8.98578 11.7928 8.45958 15.5152 10.9737C17.0549 10.5449 18.7309 10.3305 20.3875 10.3305C22.0441 10.3305 23.7201 10.5449 25.2598 10.9737C28.9822 8.45958 30.6192 8.98578 30.6192 8.98578C31.6911 11.6168 31.009 13.6437 30.8141 14.1309C32.0809 15.5146 32.8215 17.2491 32.8215 19.4124C32.8215 26.8572 28.2611 28.4943 23.915 28.9816C24.6166 29.5857 25.2598 30.7745 25.2598 32.587V37.927C25.2598 38.4532 25.5716 39.0769 26.5655 38.9015C34.3027 36.2899 39.8765 29.001 39.8765 20.3869C39.8765 17.8275 39.3724 15.2933 38.393 12.9287C37.4136 10.5642 35.9781 8.41576 34.1683 6.60604C32.3586 4.79631 30.2101 3.36076 27.8456 2.38134C25.4811 1.40193 22.9468 0.897827 20.3875 0.897827Z" fill="#FFA400"/>
</svg>
