<svg width="36" height="37" viewBox="0 0 36 37" fill="none" xmlns="http://www.w3.org/2000/svg">
<path d="M31.4167 0.875C32.4333 0.875 33.4084 1.28765 34.1272 2.02216C34.8461 2.75668 35.25 3.7529 35.25 4.79167V32.2083C35.25 33.2471 34.8461 34.2433 34.1272 34.9778C33.4084 35.7124 32.4333 36.125 31.4167 36.125H4.58333C3.56667 36.125 2.59165 35.7124 1.87276 34.9778C1.15387 34.2433 0.75 33.2471 0.75 32.2083V4.79167C0.75 3.7529 1.15387 2.75668 1.87276 2.02216C2.59165 1.28765 3.56667 0.875 4.58333 0.875H31.4167ZM30.4583 31.2292V20.85C30.4583 19.1568 29.8 17.533 28.6282 16.3357C27.4564 15.1384 25.8672 14.4658 24.21 14.4658C22.5808 14.4658 20.6833 15.4842 19.7633 17.0117V14.8379H14.4158V31.2292H19.7633V21.5746C19.7633 20.0667 20.9517 18.8329 22.4275 18.8329C23.1392 18.8329 23.8217 19.1218 24.3249 19.6359C24.8281 20.1501 25.1108 20.8474 25.1108 21.5746V31.2292H30.4583ZM8.18667 11.7633C9.04066 11.7633 9.85968 11.4167 10.4636 10.7997C11.0674 10.1827 11.4067 9.3459 11.4067 8.47333C11.4067 6.65208 9.96917 5.16375 8.18667 5.16375C7.32759 5.16375 6.50369 5.51244 5.89623 6.1331C5.28877 6.75377 4.9475 7.59558 4.9475 8.47333C4.9475 10.2946 6.40417 11.7633 8.18667 11.7633ZM10.8508 31.2292V14.8379H5.54167V31.2292H10.8508Z" fill="#FFA400"/>
</svg>
