<svg width="38" height="34" viewBox="0 0 38 34" fill="none" xmlns="http://www.w3.org/2000/svg">
<path d="M35.6751 18.4599V32.7518H3.10052V18.4599M1.84766 6.76645H36.9279V17.1606C36.9279 17.1606 29.4107 22.3577 19.3878 22.3577C9.36486 22.3577 1.84766 17.1606 1.84766 17.1606V6.76645ZM19.3878 24.9562V19.7591V24.9562ZM24.3993 6.76645C24.3993 6.76645 24.3993 1.56937 19.3878 1.56937C14.3763 1.56937 14.3763 6.76645 14.3763 6.76645" fill="#1AB2D4"/>
<path d="M35.6751 18.4599V32.7518H3.10052V18.4599M19.3878 24.9562V19.7591M24.3993 6.76645C24.3993 6.76645 24.3993 1.56937 19.3878 1.56937C14.3763 1.56937 14.3763 6.76645 14.3763 6.76645M1.84766 6.76645H36.9279V17.1606C36.9279 17.1606 29.4107 22.3577 19.3878 22.3577C9.36486 22.3577 1.84766 17.1606 1.84766 17.1606V6.76645Z" stroke="#004679" stroke-width="2" stroke-linecap="round" stroke-linejoin="round"/>
</svg>
